<mxfile host="app.diagrams.net" modified="2023-07-24T08:44:26.784Z" agent="Mozilla/5.0 (Windows NT 10.0; Win64; x64) AppleWebKit/537.36 (KHTML, like Gecko) Chrome/115.0.0.0 Safari/537.36" etag="1pcoMEljFfjmcbcyu3Iu" version="21.6.5" type="google">
  <diagram name="Page-1" id="fdU4WmkPCRbVQiA5Dyf-">
    <mxGraphModel grid="1" page="1" gridSize="10" guides="1" tooltips="1" connect="1" arrows="1" fold="1" pageScale="1" pageWidth="850" pageHeight="1100" math="0" shadow="0">
      <root>
        <mxCell id="0" />
        <mxCell id="1" parent="0" />
        <mxCell id="O89KEWk6-X6sIuvKeGnx-1" value="Bank" style="swimlane;fontStyle=1;align=center;verticalAlign=top;childLayout=stackLayout;horizontal=1;startSize=26;horizontalStack=0;resizeParent=1;resizeParentMax=0;resizeLast=0;collapsible=1;marginBottom=0;whiteSpace=wrap;html=1;fillColor=#dae8fc;strokeColor=#6c8ebf;" vertex="1" parent="1">
          <mxGeometry x="100" y="40" width="190" height="160" as="geometry" />
        </mxCell>
        <mxCell id="O89KEWk6-X6sIuvKeGnx-2" value="-bankName : string" style="text;strokeColor=none;fillColor=none;align=left;verticalAlign=top;spacingLeft=4;spacingRight=4;overflow=hidden;rotatable=0;points=[[0,0.5],[1,0.5]];portConstraint=eastwest;whiteSpace=wrap;html=1;" vertex="1" parent="O89KEWk6-X6sIuvKeGnx-1">
          <mxGeometry y="26" width="190" height="26" as="geometry" />
        </mxCell>
        <mxCell id="O89KEWk6-X6sIuvKeGnx-3" value="" style="line;strokeWidth=1;fillColor=none;align=left;verticalAlign=middle;spacingTop=-1;spacingLeft=3;spacingRight=3;rotatable=0;labelPosition=right;points=[];portConstraint=eastwest;strokeColor=inherit;" vertex="1" parent="O89KEWk6-X6sIuvKeGnx-1">
          <mxGeometry y="52" width="190" height="8" as="geometry" />
        </mxCell>
        <mxCell id="O89KEWk6-X6sIuvKeGnx-4" value="+ getBankName() : string&lt;br&gt;+ setBankName(string) : void&lt;br&gt;+ addBranch()&lt;br&gt;+ removeBranch()&lt;br&gt;+ getBranch()&lt;br&gt;+ getAllBranches()" style="text;strokeColor=none;fillColor=none;align=left;verticalAlign=top;spacingLeft=4;spacingRight=4;overflow=hidden;rotatable=0;points=[[0,0.5],[1,0.5]];portConstraint=eastwest;whiteSpace=wrap;html=1;" vertex="1" parent="O89KEWk6-X6sIuvKeGnx-1">
          <mxGeometry y="60" width="190" height="100" as="geometry" />
        </mxCell>
        <mxCell id="O89KEWk6-X6sIuvKeGnx-5" value="Loan" style="swimlane;fontStyle=1;align=center;verticalAlign=top;childLayout=stackLayout;horizontal=1;startSize=26;horizontalStack=0;resizeParent=1;resizeParentMax=0;resizeLast=0;collapsible=1;marginBottom=0;whiteSpace=wrap;html=1;fillColor=#dae8fc;strokeColor=#6c8ebf;" vertex="1" parent="1">
          <mxGeometry x="260" y="240" width="190" height="160" as="geometry" />
        </mxCell>
        <mxCell id="O89KEWk6-X6sIuvKeGnx-6" value="- loanNo : int" style="text;strokeColor=none;fillColor=none;align=left;verticalAlign=top;spacingLeft=4;spacingRight=4;overflow=hidden;rotatable=0;points=[[0,0.5],[1,0.5]];portConstraint=eastwest;whiteSpace=wrap;html=1;" vertex="1" parent="O89KEWk6-X6sIuvKeGnx-5">
          <mxGeometry y="26" width="190" height="26" as="geometry" />
        </mxCell>
        <mxCell id="O89KEWk6-X6sIuvKeGnx-7" value="" style="line;strokeWidth=1;fillColor=none;align=left;verticalAlign=middle;spacingTop=-1;spacingLeft=3;spacingRight=3;rotatable=0;labelPosition=right;points=[];portConstraint=eastwest;strokeColor=inherit;" vertex="1" parent="O89KEWk6-X6sIuvKeGnx-5">
          <mxGeometry y="52" width="190" height="8" as="geometry" />
        </mxCell>
        <mxCell id="O89KEWk6-X6sIuvKeGnx-8" value="+ getLoanNo() : int&lt;br&gt;+ setLoanNo(int) : void&lt;br&gt;+ getLoanAmount() : double&lt;br&gt;+ getLoanType() : string&lt;br&gt;+ setLoanAmount(double) : void&lt;br&gt;+ setLoanType(string) : void" style="text;strokeColor=none;fillColor=none;align=left;verticalAlign=top;spacingLeft=4;spacingRight=4;overflow=hidden;rotatable=0;points=[[0,0.5],[1,0.5]];portConstraint=eastwest;whiteSpace=wrap;html=1;" vertex="1" parent="O89KEWk6-X6sIuvKeGnx-5">
          <mxGeometry y="60" width="190" height="100" as="geometry" />
        </mxCell>
        <mxCell id="O89KEWk6-X6sIuvKeGnx-9" value="Branch" style="swimlane;fontStyle=1;align=center;verticalAlign=top;childLayout=stackLayout;horizontal=1;startSize=26;horizontalStack=0;resizeParent=1;resizeParentMax=0;resizeLast=0;collapsible=1;marginBottom=0;whiteSpace=wrap;html=1;fillColor=#dae8fc;strokeColor=#6c8ebf;" vertex="1" parent="1">
          <mxGeometry x="540" y="40" width="180" height="210" as="geometry" />
        </mxCell>
        <mxCell id="O89KEWk6-X6sIuvKeGnx-10" value="- branchName : string" style="text;strokeColor=none;fillColor=none;align=left;verticalAlign=top;spacingLeft=4;spacingRight=4;overflow=hidden;rotatable=0;points=[[0,0.5],[1,0.5]];portConstraint=eastwest;whiteSpace=wrap;html=1;" vertex="1" parent="O89KEWk6-X6sIuvKeGnx-9">
          <mxGeometry y="26" width="180" height="26" as="geometry" />
        </mxCell>
        <mxCell id="O89KEWk6-X6sIuvKeGnx-11" value="" style="line;strokeWidth=1;fillColor=none;align=left;verticalAlign=middle;spacingTop=-1;spacingLeft=3;spacingRight=3;rotatable=0;labelPosition=right;points=[];portConstraint=eastwest;strokeColor=inherit;" vertex="1" parent="O89KEWk6-X6sIuvKeGnx-9">
          <mxGeometry y="52" width="180" height="8" as="geometry" />
        </mxCell>
        <mxCell id="O89KEWk6-X6sIuvKeGnx-12" value="+ getBranchName(): string&lt;br&gt;+ setBranchName(string) : void&lt;br&gt;+ addAccount()&lt;br&gt;+ removeAccount()&lt;br&gt;+ addLoan()&lt;br&gt;+ removeLoan()&lt;br&gt;+addCustomer()&lt;br&gt;+ removeCustomer()&lt;br&gt;+ getCustomer()&lt;br&gt;+ getAllCustomer()" style="text;strokeColor=none;fillColor=none;align=left;verticalAlign=top;spacingLeft=4;spacingRight=4;overflow=hidden;rotatable=0;points=[[0,0.5],[1,0.5]];portConstraint=eastwest;whiteSpace=wrap;html=1;" vertex="1" parent="O89KEWk6-X6sIuvKeGnx-9">
          <mxGeometry y="60" width="180" height="150" as="geometry" />
        </mxCell>
        <mxCell id="O89KEWk6-X6sIuvKeGnx-13" value="Account" style="swimlane;fontStyle=1;align=center;verticalAlign=top;childLayout=stackLayout;horizontal=1;startSize=26;horizontalStack=0;resizeParent=1;resizeParentMax=0;resizeLast=0;collapsible=1;marginBottom=0;whiteSpace=wrap;html=1;fillColor=#dae8fc;strokeColor=#6c8ebf;" vertex="1" parent="1">
          <mxGeometry x="540" y="265" width="160" height="110" as="geometry" />
        </mxCell>
        <mxCell id="O89KEWk6-X6sIuvKeGnx-14" value="- accountNo : long" style="text;strokeColor=none;fillColor=none;align=left;verticalAlign=top;spacingLeft=4;spacingRight=4;overflow=hidden;rotatable=0;points=[[0,0.5],[1,0.5]];portConstraint=eastwest;whiteSpace=wrap;html=1;" vertex="1" parent="O89KEWk6-X6sIuvKeGnx-13">
          <mxGeometry y="26" width="160" height="26" as="geometry" />
        </mxCell>
        <mxCell id="O89KEWk6-X6sIuvKeGnx-15" value="" style="line;strokeWidth=1;fillColor=none;align=left;verticalAlign=middle;spacingTop=-1;spacingLeft=3;spacingRight=3;rotatable=0;labelPosition=right;points=[];portConstraint=eastwest;strokeColor=inherit;" vertex="1" parent="O89KEWk6-X6sIuvKeGnx-13">
          <mxGeometry y="52" width="160" height="8" as="geometry" />
        </mxCell>
        <mxCell id="O89KEWk6-X6sIuvKeGnx-16" value="+ getAccountNo() : long&lt;br&gt;+ setAccountNo(long) : void" style="text;strokeColor=none;fillColor=none;align=left;verticalAlign=top;spacingLeft=4;spacingRight=4;overflow=hidden;rotatable=0;points=[[0,0.5],[1,0.5]];portConstraint=eastwest;whiteSpace=wrap;html=1;" vertex="1" parent="O89KEWk6-X6sIuvKeGnx-13">
          <mxGeometry y="60" width="160" height="50" as="geometry" />
        </mxCell>
        <mxCell id="O89KEWk6-X6sIuvKeGnx-17" value="Customer" style="swimlane;fontStyle=1;align=center;verticalAlign=top;childLayout=stackLayout;horizontal=1;startSize=26;horizontalStack=0;resizeParent=1;resizeParentMax=0;resizeLast=0;collapsible=1;marginBottom=0;whiteSpace=wrap;html=1;fillColor=#dae8fc;strokeColor=#6c8ebf;" vertex="1" parent="1">
          <mxGeometry x="130" y="590" width="190" height="110" as="geometry" />
        </mxCell>
        <mxCell id="O89KEWk6-X6sIuvKeGnx-18" value="- customerName : string" style="text;strokeColor=none;fillColor=none;align=left;verticalAlign=top;spacingLeft=4;spacingRight=4;overflow=hidden;rotatable=0;points=[[0,0.5],[1,0.5]];portConstraint=eastwest;whiteSpace=wrap;html=1;" vertex="1" parent="O89KEWk6-X6sIuvKeGnx-17">
          <mxGeometry y="26" width="190" height="26" as="geometry" />
        </mxCell>
        <mxCell id="O89KEWk6-X6sIuvKeGnx-19" value="" style="line;strokeWidth=1;fillColor=none;align=left;verticalAlign=middle;spacingTop=-1;spacingLeft=3;spacingRight=3;rotatable=0;labelPosition=right;points=[];portConstraint=eastwest;strokeColor=inherit;" vertex="1" parent="O89KEWk6-X6sIuvKeGnx-17">
          <mxGeometry y="52" width="190" height="8" as="geometry" />
        </mxCell>
        <mxCell id="O89KEWk6-X6sIuvKeGnx-20" value="+ getCustomerName() : string&lt;br&gt;+ setCustomerName(string) : void" style="text;strokeColor=none;fillColor=none;align=left;verticalAlign=top;spacingLeft=4;spacingRight=4;overflow=hidden;rotatable=0;points=[[0,0.5],[1,0.5]];portConstraint=eastwest;whiteSpace=wrap;html=1;" vertex="1" parent="O89KEWk6-X6sIuvKeGnx-17">
          <mxGeometry y="60" width="190" height="50" as="geometry" />
        </mxCell>
        <mxCell id="O89KEWk6-X6sIuvKeGnx-21" value="SavingAccount" style="swimlane;fontStyle=1;align=center;verticalAlign=top;childLayout=stackLayout;horizontal=1;startSize=26;horizontalStack=0;resizeParent=1;resizeParentMax=0;resizeLast=0;collapsible=1;marginBottom=0;whiteSpace=wrap;html=1;fillColor=#dae8fc;strokeColor=#6c8ebf;" vertex="1" parent="1">
          <mxGeometry x="435" y="440" width="180" height="140" as="geometry" />
        </mxCell>
        <mxCell id="O89KEWk6-X6sIuvKeGnx-22" value="- interestRate : float" style="text;strokeColor=none;fillColor=none;align=left;verticalAlign=top;spacingLeft=4;spacingRight=4;overflow=hidden;rotatable=0;points=[[0,0.5],[1,0.5]];portConstraint=eastwest;whiteSpace=wrap;html=1;" vertex="1" parent="O89KEWk6-X6sIuvKeGnx-21">
          <mxGeometry y="26" width="180" height="26" as="geometry" />
        </mxCell>
        <mxCell id="O89KEWk6-X6sIuvKeGnx-23" value="" style="line;strokeWidth=1;fillColor=none;align=left;verticalAlign=middle;spacingTop=-1;spacingLeft=3;spacingRight=3;rotatable=0;labelPosition=right;points=[];portConstraint=eastwest;strokeColor=inherit;" vertex="1" parent="O89KEWk6-X6sIuvKeGnx-21">
          <mxGeometry y="52" width="180" height="8" as="geometry" />
        </mxCell>
        <mxCell id="O89KEWk6-X6sIuvKeGnx-24" value="+ getInterestRate() : float&lt;br&gt;+ setInterestRate(float) : void&lt;br&gt;+ checkBalance() : double&lt;br&gt;" style="text;strokeColor=none;fillColor=none;align=left;verticalAlign=top;spacingLeft=4;spacingRight=4;overflow=hidden;rotatable=0;points=[[0,0.5],[1,0.5]];portConstraint=eastwest;whiteSpace=wrap;html=1;" vertex="1" parent="O89KEWk6-X6sIuvKeGnx-21">
          <mxGeometry y="60" width="180" height="80" as="geometry" />
        </mxCell>
        <mxCell id="O89KEWk6-X6sIuvKeGnx-25" value="CurrentAccount" style="swimlane;fontStyle=1;align=center;verticalAlign=top;childLayout=stackLayout;horizontal=1;startSize=26;horizontalStack=0;resizeParent=1;resizeParentMax=0;resizeLast=0;collapsible=1;marginBottom=0;whiteSpace=wrap;html=1;fillColor=#dae8fc;strokeColor=#6c8ebf;" vertex="1" parent="1">
          <mxGeometry x="645" y="440" width="180" height="140" as="geometry" />
        </mxCell>
        <mxCell id="O89KEWk6-X6sIuvKeGnx-26" value="- interestRate : float" style="text;strokeColor=none;fillColor=none;align=left;verticalAlign=top;spacingLeft=4;spacingRight=4;overflow=hidden;rotatable=0;points=[[0,0.5],[1,0.5]];portConstraint=eastwest;whiteSpace=wrap;html=1;" vertex="1" parent="O89KEWk6-X6sIuvKeGnx-25">
          <mxGeometry y="26" width="180" height="26" as="geometry" />
        </mxCell>
        <mxCell id="O89KEWk6-X6sIuvKeGnx-27" value="" style="line;strokeWidth=1;fillColor=none;align=left;verticalAlign=middle;spacingTop=-1;spacingLeft=3;spacingRight=3;rotatable=0;labelPosition=right;points=[];portConstraint=eastwest;strokeColor=inherit;" vertex="1" parent="O89KEWk6-X6sIuvKeGnx-25">
          <mxGeometry y="52" width="180" height="8" as="geometry" />
        </mxCell>
        <mxCell id="O89KEWk6-X6sIuvKeGnx-28" value="+ getInterestRate() : float&lt;br&gt;+ setInterestRate(float) : void&lt;br&gt;+ checkBalance() : double" style="text;strokeColor=none;fillColor=none;align=left;verticalAlign=top;spacingLeft=4;spacingRight=4;overflow=hidden;rotatable=0;points=[[0,0.5],[1,0.5]];portConstraint=eastwest;whiteSpace=wrap;html=1;" vertex="1" parent="O89KEWk6-X6sIuvKeGnx-25">
          <mxGeometry y="60" width="180" height="80" as="geometry" />
        </mxCell>
        <mxCell id="O89KEWk6-X6sIuvKeGnx-29" value="" style="endArrow=diamondThin;endFill=1;endSize=24;html=1;rounded=0;entryX=1;entryY=0.5;entryDx=0;entryDy=0;exitX=0;exitY=0.5;exitDx=0;exitDy=0;" edge="1" parent="1">
          <mxGeometry width="160" relative="1" as="geometry">
            <mxPoint x="540" y="90" as="sourcePoint" />
            <mxPoint x="290" y="90" as="targetPoint" />
          </mxGeometry>
        </mxCell>
        <mxCell id="O89KEWk6-X6sIuvKeGnx-30" value="1" style="text;html=1;align=center;verticalAlign=middle;resizable=0;points=[];autosize=1;strokeColor=none;fillColor=none;" vertex="1" parent="1">
          <mxGeometry x="300" y="50" width="30" height="30" as="geometry" />
        </mxCell>
        <mxCell id="O89KEWk6-X6sIuvKeGnx-31" value="n" style="text;html=1;align=center;verticalAlign=middle;resizable=0;points=[];autosize=1;strokeColor=none;fillColor=none;" vertex="1" parent="1">
          <mxGeometry x="510" y="50" width="30" height="30" as="geometry" />
        </mxCell>
        <mxCell id="O89KEWk6-X6sIuvKeGnx-32" value="" style="endArrow=diamondThin;endFill=0;endSize=24;html=1;rounded=0;exitX=0.5;exitY=0;exitDx=0;exitDy=0;" edge="1" parent="1" source="O89KEWk6-X6sIuvKeGnx-5">
          <mxGeometry width="160" relative="1" as="geometry">
            <mxPoint x="340" y="280" as="sourcePoint" />
            <mxPoint x="539" y="160" as="targetPoint" />
            <Array as="points">
              <mxPoint x="355" y="160" />
            </Array>
          </mxGeometry>
        </mxCell>
        <mxCell id="O89KEWk6-X6sIuvKeGnx-33" value="1" style="text;html=1;align=center;verticalAlign=middle;resizable=0;points=[];autosize=1;strokeColor=none;fillColor=none;" vertex="1" parent="1">
          <mxGeometry x="490" y="90" width="30" height="30" as="geometry" />
        </mxCell>
        <mxCell id="O89KEWk6-X6sIuvKeGnx-34" value="" style="endArrow=diamondThin;endFill=0;endSize=24;html=1;rounded=0;exitX=1;exitY=0.5;exitDx=0;exitDy=0;entryX=1;entryY=0.3;entryDx=0;entryDy=0;entryPerimeter=0;" edge="1" parent="1" source="O89KEWk6-X6sIuvKeGnx-14" target="O89KEWk6-X6sIuvKeGnx-12">
          <mxGeometry width="160" relative="1" as="geometry">
            <mxPoint x="720" y="280" as="sourcePoint" />
            <mxPoint x="720" y="120" as="targetPoint" />
            <Array as="points">
              <mxPoint x="810" y="304" />
              <mxPoint x="810" y="145" />
            </Array>
          </mxGeometry>
        </mxCell>
        <mxCell id="O89KEWk6-X6sIuvKeGnx-37" value="1" style="text;html=1;align=center;verticalAlign=middle;resizable=0;points=[];autosize=1;strokeColor=none;fillColor=none;" vertex="1" parent="1">
          <mxGeometry x="730" y="150" width="30" height="30" as="geometry" />
        </mxCell>
        <mxCell id="O89KEWk6-X6sIuvKeGnx-38" value="n" style="text;html=1;align=center;verticalAlign=middle;resizable=0;points=[];autosize=1;strokeColor=none;fillColor=none;" vertex="1" parent="1">
          <mxGeometry x="360" y="210" width="30" height="30" as="geometry" />
        </mxCell>
        <mxCell id="O89KEWk6-X6sIuvKeGnx-39" value="n" style="text;html=1;align=center;verticalAlign=middle;resizable=0;points=[];autosize=1;strokeColor=none;fillColor=none;" vertex="1" parent="1">
          <mxGeometry x="700" y="250" width="30" height="30" as="geometry" />
        </mxCell>
        <mxCell id="O89KEWk6-X6sIuvKeGnx-40" value="Extends" style="endArrow=block;endSize=16;endFill=0;html=1;rounded=0;entryX=0.524;entryY=1.031;entryDx=0;entryDy=0;entryPerimeter=0;exitX=0.5;exitY=0;exitDx=0;exitDy=0;" edge="1" parent="1" source="O89KEWk6-X6sIuvKeGnx-21" target="O89KEWk6-X6sIuvKeGnx-16">
          <mxGeometry width="160" relative="1" as="geometry">
            <mxPoint x="600" y="420" as="sourcePoint" />
            <mxPoint x="760" y="420" as="targetPoint" />
          </mxGeometry>
        </mxCell>
        <mxCell id="O89KEWk6-X6sIuvKeGnx-41" value="Extends" style="endArrow=block;endSize=16;endFill=0;html=1;rounded=0;entryX=0.572;entryY=1.031;entryDx=0;entryDy=0;entryPerimeter=0;exitX=0.5;exitY=0;exitDx=0;exitDy=0;" edge="1" parent="1" source="O89KEWk6-X6sIuvKeGnx-25" target="O89KEWk6-X6sIuvKeGnx-16">
          <mxGeometry width="160" relative="1" as="geometry">
            <mxPoint x="600" y="420" as="sourcePoint" />
            <mxPoint x="760" y="420" as="targetPoint" />
          </mxGeometry>
        </mxCell>
        <mxCell id="O89KEWk6-X6sIuvKeGnx-42" value="" style="endArrow=diamondThin;endFill=0;endSize=24;html=1;rounded=0;entryX=0.5;entryY=0;entryDx=0;entryDy=0;exitX=0.94;exitY=1;exitDx=0;exitDy=0;exitPerimeter=0;" edge="1" parent="1" source="O89KEWk6-X6sIuvKeGnx-43" target="O89KEWk6-X6sIuvKeGnx-17">
          <mxGeometry width="160" relative="1" as="geometry">
            <mxPoint x="380" y="490" as="sourcePoint" />
            <mxPoint x="220" y="490" as="targetPoint" />
            <Array as="points">
              <mxPoint x="225" y="500" />
            </Array>
          </mxGeometry>
        </mxCell>
        <mxCell id="O89KEWk6-X6sIuvKeGnx-43" value="n" style="text;html=1;align=center;verticalAlign=middle;resizable=0;points=[];autosize=1;strokeColor=none;fillColor=none;" vertex="1" parent="1">
          <mxGeometry x="405" y="470" width="30" height="30" as="geometry" />
        </mxCell>
        <mxCell id="O89KEWk6-X6sIuvKeGnx-44" value="1" style="text;html=1;align=center;verticalAlign=middle;resizable=0;points=[];autosize=1;strokeColor=none;fillColor=none;" vertex="1" parent="1">
          <mxGeometry x="190" y="560" width="30" height="30" as="geometry" />
        </mxCell>
        <mxCell id="O89KEWk6-X6sIuvKeGnx-45" value="" style="endArrow=diamondThin;endFill=0;endSize=24;html=1;rounded=0;exitX=0.527;exitY=1.021;exitDx=0;exitDy=0;exitPerimeter=0;" edge="1" parent="1" source="O89KEWk6-X6sIuvKeGnx-28">
          <mxGeometry width="160" relative="1" as="geometry">
            <mxPoint x="380" y="560" as="sourcePoint" />
            <mxPoint x="320" y="645" as="targetPoint" />
            <Array as="points">
              <mxPoint x="740" y="645" />
            </Array>
          </mxGeometry>
        </mxCell>
        <mxCell id="O89KEWk6-X6sIuvKeGnx-46" value="1" style="text;html=1;align=center;verticalAlign=middle;resizable=0;points=[];autosize=1;strokeColor=none;fillColor=none;" vertex="1" parent="1">
          <mxGeometry x="745" y="578" width="30" height="30" as="geometry" />
        </mxCell>
        <mxCell id="O89KEWk6-X6sIuvKeGnx-47" value="1" style="text;html=1;align=center;verticalAlign=middle;resizable=0;points=[];autosize=1;strokeColor=none;fillColor=none;" vertex="1" parent="1">
          <mxGeometry x="320" y="600" width="30" height="30" as="geometry" />
        </mxCell>
        <mxCell id="O89KEWk6-X6sIuvKeGnx-48" value="" style="endArrow=diamondThin;endFill=1;endSize=24;html=1;rounded=0;entryX=1;entryY=0.5;entryDx=0;entryDy=0;" edge="1" parent="1">
          <mxGeometry width="160" relative="1" as="geometry">
            <mxPoint x="320" y="680" as="sourcePoint" />
            <mxPoint x="720" y="100" as="targetPoint" />
            <Array as="points">
              <mxPoint x="880" y="680" />
              <mxPoint x="880" y="100" />
            </Array>
          </mxGeometry>
        </mxCell>
        <mxCell id="O89KEWk6-X6sIuvKeGnx-49" value="1" style="text;html=1;align=center;verticalAlign=middle;resizable=0;points=[];autosize=1;strokeColor=none;fillColor=none;" vertex="1" parent="1">
          <mxGeometry x="730" y="70" width="30" height="30" as="geometry" />
        </mxCell>
        <mxCell id="O89KEWk6-X6sIuvKeGnx-50" value="n" style="text;html=1;align=center;verticalAlign=middle;resizable=0;points=[];autosize=1;strokeColor=none;fillColor=none;" vertex="1" parent="1">
          <mxGeometry x="320" y="680" width="30" height="30" as="geometry" />
        </mxCell>
        <mxCell id="OP1zKelhAQdf8aioGbkJ-3" value="&lt;p style=&quot;margin:0px;margin-top:4px;text-align:center;text-decoration:underline;&quot;&gt;C2 : Customer2&lt;/p&gt;&lt;hr&gt;&lt;p style=&quot;margin:0px;margin-left:8px;&quot;&gt;customerName = Swetha&lt;/p&gt;" style="verticalAlign=top;align=left;overflow=fill;fontSize=12;fontFamily=Helvetica;html=1;whiteSpace=wrap;" vertex="1" parent="1">
          <mxGeometry x="810" y="840" width="160" height="50" as="geometry" />
        </mxCell>
        <mxCell id="OP1zKelhAQdf8aioGbkJ-4" value="&lt;p style=&quot;margin:0px;margin-top:4px;text-align:center;text-decoration:underline;&quot;&gt;C1 : Customer&lt;/p&gt;&lt;hr&gt;&lt;p style=&quot;margin:0px;margin-left:8px;&quot;&gt;customerName = Hephzi&lt;/p&gt;" style="verticalAlign=top;align=left;overflow=fill;fontSize=12;fontFamily=Helvetica;html=1;whiteSpace=wrap;" vertex="1" parent="1">
          <mxGeometry x="200" y="840" width="160" height="50" as="geometry" />
        </mxCell>
        <mxCell id="OP1zKelhAQdf8aioGbkJ-6" value="&lt;p style=&quot;margin:0px;margin-top:4px;text-align:center;text-decoration:underline;&quot;&gt;L1 : Loan&lt;/p&gt;&lt;hr&gt;&lt;p style=&quot;margin:0px;margin-left:8px;&quot;&gt;LoanNo = 119&lt;/p&gt;&lt;p style=&quot;margin:0px;margin-left:8px;&quot;&gt;LoanAmount = 500000&lt;/p&gt;&lt;p style=&quot;margin:0px;margin-left:8px;&quot;&gt;LoanType = Homeloan&lt;/p&gt;" style="verticalAlign=top;align=left;overflow=fill;fontSize=12;fontFamily=Helvetica;html=1;whiteSpace=wrap;" vertex="1" parent="1">
          <mxGeometry x="30" y="970" width="160" height="90" as="geometry" />
        </mxCell>
        <mxCell id="OP1zKelhAQdf8aioGbkJ-7" value="&lt;p style=&quot;margin:0px;margin-top:4px;text-align:center;text-decoration:underline;&quot;&gt;L2 : Loan&lt;/p&gt;&lt;hr&gt;&lt;p style=&quot;margin:0px;margin-left:8px;&quot;&gt;LoanNo = 966&lt;/p&gt;&lt;p style=&quot;margin:0px;margin-left:8px;&quot;&gt;LoanAmount = 20000&lt;/p&gt;&lt;p style=&quot;margin:0px;margin-left:8px;&quot;&gt;LoanType = Education&lt;/p&gt;" style="verticalAlign=top;align=left;overflow=fill;fontSize=12;fontFamily=Helvetica;html=1;whiteSpace=wrap;" vertex="1" parent="1">
          <mxGeometry x="620" y="960" width="160" height="90" as="geometry" />
        </mxCell>
        <mxCell id="OP1zKelhAQdf8aioGbkJ-10" value="" style="endArrow=none;html=1;rounded=0;entryX=0.456;entryY=-0.043;entryDx=0;entryDy=0;entryPerimeter=0;exitX=0.563;exitY=0;exitDx=0;exitDy=0;exitPerimeter=0;" edge="1" parent="1" source="OP1zKelhAQdf8aioGbkJ-6" target="OP1zKelhAQdf8aioGbkJ-16">
          <mxGeometry width="50" height="50" relative="1" as="geometry">
            <mxPoint x="120" y="910" as="sourcePoint" />
            <mxPoint x="439.4399999999998" y="937.3599999999999" as="targetPoint" />
            <Array as="points">
              <mxPoint x="120" y="920" />
              <mxPoint x="450" y="920" />
            </Array>
          </mxGeometry>
        </mxCell>
        <mxCell id="OP1zKelhAQdf8aioGbkJ-11" value="" style="endArrow=none;html=1;rounded=0;entryX=0.438;entryY=0;entryDx=0;entryDy=0;entryPerimeter=0;exitX=0.62;exitY=-0.016;exitDx=0;exitDy=0;exitPerimeter=0;" edge="1" parent="1" source="OP1zKelhAQdf8aioGbkJ-7" target="OP1zKelhAQdf8aioGbkJ-20">
          <mxGeometry width="50" height="50" relative="1" as="geometry">
            <mxPoint x="730" y="940" as="sourcePoint" />
            <mxPoint x="1049" y="938" as="targetPoint" />
            <Array as="points">
              <mxPoint x="720" y="920" />
              <mxPoint x="1080" y="920" />
            </Array>
          </mxGeometry>
        </mxCell>
        <mxCell id="OP1zKelhAQdf8aioGbkJ-13" value="" style="endArrow=none;html=1;rounded=0;entryX=0.5;entryY=1;entryDx=0;entryDy=0;exitX=0.434;exitY=-0.031;exitDx=0;exitDy=0;exitPerimeter=0;" edge="1" parent="1" source="OP1zKelhAQdf8aioGbkJ-17">
          <mxGeometry width="50" height="50" relative="1" as="geometry">
            <mxPoint x="279.5" y="920" as="sourcePoint" />
            <mxPoint x="279.5" y="890" as="targetPoint" />
          </mxGeometry>
        </mxCell>
        <mxCell id="OP1zKelhAQdf8aioGbkJ-14" value="" style="endArrow=none;html=1;rounded=0;entryX=0.5;entryY=1;entryDx=0;entryDy=0;exitX=0.373;exitY=0;exitDx=0;exitDy=0;exitPerimeter=0;" edge="1" parent="1" source="OP1zKelhAQdf8aioGbkJ-19">
          <mxGeometry width="50" height="50" relative="1" as="geometry">
            <mxPoint x="889.6" y="920" as="sourcePoint" />
            <mxPoint x="889.6" y="890" as="targetPoint" />
          </mxGeometry>
        </mxCell>
        <mxCell id="OP1zKelhAQdf8aioGbkJ-16" value="&lt;p style=&quot;margin:0px;margin-top:4px;text-align:center;text-decoration:underline;&quot;&gt;Cu1 : CurrentAccount&lt;/p&gt;&lt;hr&gt;&lt;p style=&quot;margin:0px;margin-left:8px;&quot;&gt;InterestRate = 30&lt;/p&gt;" style="verticalAlign=top;align=left;overflow=fill;fontSize=12;fontFamily=Helvetica;html=1;whiteSpace=wrap;" vertex="1" parent="1">
          <mxGeometry x="390" y="970" width="130" height="50" as="geometry" />
        </mxCell>
        <mxCell id="OP1zKelhAQdf8aioGbkJ-17" value="&lt;p style=&quot;margin:0px;margin-top:4px;text-align:center;text-decoration:underline;&quot;&gt;S1 : SavingAccount&lt;/p&gt;&lt;hr&gt;&lt;p style=&quot;margin:0px;margin-left:8px;&quot;&gt;InterestRate = 25&lt;/p&gt;" style="verticalAlign=top;align=left;overflow=fill;fontSize=12;fontFamily=Helvetica;html=1;whiteSpace=wrap;" vertex="1" parent="1">
          <mxGeometry x="210" y="970" width="160" height="50" as="geometry" />
        </mxCell>
        <mxCell id="OP1zKelhAQdf8aioGbkJ-19" value="&lt;p style=&quot;margin:0px;margin-top:4px;text-align:center;text-decoration:underline;&quot;&gt;S2 : SavingAccount&lt;/p&gt;&lt;hr&gt;&lt;p style=&quot;margin:0px;margin-left:8px;&quot;&gt;InterestRate = 10&lt;/p&gt;" style="verticalAlign=top;align=left;overflow=fill;fontSize=12;fontFamily=Helvetica;html=1;whiteSpace=wrap;" vertex="1" parent="1">
          <mxGeometry x="830" y="960" width="160" height="50" as="geometry" />
        </mxCell>
        <mxCell id="OP1zKelhAQdf8aioGbkJ-20" value="&lt;p style=&quot;margin:0px;margin-top:4px;text-align:center;text-decoration:underline;&quot;&gt;Cu2 : CurrentAccount&lt;/p&gt;&lt;hr&gt;&lt;p style=&quot;margin:0px;margin-left:8px;&quot;&gt;InterestRate = 15&lt;/p&gt;" style="verticalAlign=top;align=left;overflow=fill;fontSize=12;fontFamily=Helvetica;html=1;whiteSpace=wrap;" vertex="1" parent="1">
          <mxGeometry x="1010" y="960" width="160" height="50" as="geometry" />
        </mxCell>
        <mxCell id="gPjICE8skawhCJRPLVq3-1" value="&lt;font style=&quot;font-size: 14px;&quot;&gt;Object Diagram&lt;/font&gt;" style="text;html=1;align=center;verticalAlign=middle;resizable=0;points=[];autosize=1;strokeColor=none;fillColor=none;" vertex="1" parent="1">
          <mxGeometry x="500" y="758" width="120" height="30" as="geometry" />
        </mxCell>
      </root>
    </mxGraphModel>
  </diagram>
</mxfile>
